<svg width="103" height="94" viewBox="0 0 103 94" fill="none" xmlns="http://www.w3.org/2000/svg">
<path d="M24.1111 0C24.1111 0 -12.6196 26.1387 4.58936 63.1986C21.7983 100.259 92.6659 95.9543 100.736 59.8901C108.807 23.826 85.4466 11.5797 59.581 15.5547C33.7153 19.5297 24.1111 0 24.1111 0Z" fill="#C7D166"/>
<path d="M44.7892 88.0444C44.5804 88.0444 44.4038 88.0444 44.2431 88.0363C38.2043 87.9159 37.1363 79.9257 37.0881 79.5804L26.7611 18.1244C26.7451 18.028 26.5765 17.1206 26.3516 15.8357C26.0465 14.0771 25.6208 11.5315 25.3318 9.36331C24.8098 5.4927 29.0819 3.70194 31.6918 3.25224C31.7399 3.24421 31.7881 3.23618 31.8443 3.23618C32.1575 3.21209 62.7048 1.80678 67.2982 1.50966C72.9836 1.17239 74.3809 8.36755 74.4371 8.67271C74.5496 9.33119 85.3022 72.7225 86.2979 78.7372C86.6753 80.9857 86.2979 82.8327 85.1817 84.23C83.4873 86.3419 80.7329 86.5186 80.6205 86.5186C79.3838 86.5828 51.1572 88.0444 44.7892 88.0444ZM32.0451 5.62922C31.491 5.74164 27.4036 6.68119 27.7248 9.03407C28.0139 11.1621 28.4315 13.6836 28.7286 15.4182C28.9615 16.7673 29.1301 17.6908 29.1301 17.6908C29.1301 17.6988 29.1301 17.7068 29.1301 17.7068L39.4651 79.2351C39.4812 79.3475 40.3244 85.555 44.2833 85.6272C49.246 85.7236 80.1708 84.1256 80.484 84.1095C80.492 84.1095 82.2988 83.973 83.3106 82.7042C83.9771 81.869 84.1779 80.6645 83.9209 79.1227C82.9171 73.108 72.1726 9.72468 72.0602 9.09028C72.0602 9.05816 71.0162 3.69391 67.4588 3.91073C62.9618 4.20785 33.884 5.54891 32.0451 5.62922Z" fill="#231F20"/>
<path d="M28.3511 16.5827C27.7167 16.5827 27.1867 16.0848 27.1466 15.4423C27.1145 14.7758 27.6204 14.2137 28.2869 14.1736L73.867 11.6761C74.5335 11.644 75.0956 12.1499 75.1358 12.8164C75.1679 13.483 74.662 14.0451 73.9955 14.0852L28.4154 16.5827C28.3993 16.5827 28.3752 16.5827 28.3511 16.5827Z" fill="#231F20"/>
<path d="M38.1401 76.2638C37.5057 76.2638 36.9757 75.7659 36.9355 75.1235C36.9034 74.457 37.4093 73.8949 38.0758 73.8547L83.6559 71.3573C84.3224 71.3252 84.8846 71.8311 84.9247 72.4976C84.9568 73.1641 84.4509 73.7262 83.7844 73.7664L38.2043 76.2638C38.1883 76.2638 38.1642 76.2638 38.1401 76.2638Z" fill="#231F20"/>
<path d="M38.1401 93.77C38.0196 93.77 37.9152 93.77 37.8188 93.77C33.5226 93.7218 31.9166 89.0963 31.6676 86.6551L29.2425 71.9837L24.2797 41.4685C24.1272 40.6254 20.377 20.1561 19.8711 17.0403C19.3411 13.764 20.2325 12.463 20.642 12.0535L25.5967 6.42424C26.0384 5.92636 26.8013 5.87818 27.2991 6.31985C27.797 6.76152 27.8452 7.5244 27.4035 8.02228L22.4167 13.6836C22.4006 13.6997 22.3926 13.7158 22.3765 13.7238C22.3123 13.8202 21.9108 14.567 22.2481 16.6549C22.7459 19.7465 26.6166 40.8422 26.6567 41.059L31.6275 71.5903L34.0607 86.3339C34.0767 86.4544 34.6308 91.3207 37.851 91.3529C42.1552 91.401 71.4498 90.2527 71.7469 90.2367C71.8192 90.2286 71.8915 90.2366 71.9638 90.2447C72.9916 90.3892 75.9307 90.5016 77.1995 89.2971C79.1107 87.4903 82.612 83.4029 82.6521 83.3547C83.0857 82.8488 83.8486 82.7925 84.3545 83.2262C84.8604 83.6598 84.9167 84.4227 84.483 84.9286C84.3385 85.0973 80.8613 89.1526 78.8618 91.0477C76.6535 93.1436 72.5982 92.7582 71.7389 92.6457C69.5547 92.7421 43.3036 93.77 38.1401 93.77Z" fill="#231F20"/>
<path d="M42.6853 75.6696C42.1874 75.6696 41.7216 75.3645 41.553 74.8666C41.4646 74.6177 40.758 72.2969 42.091 67.6554C43.5846 62.4517 48.0736 58.3643 49.4147 57.232C51.5106 55.4654 55.7185 54.8631 58.8824 54.6704C61.5404 54.5017 67.2821 56.2925 69.8197 59.3601C71.9156 61.8896 73.4253 63.7205 74.4692 65.7602C75.6818 68.1211 76.5411 71.6143 76.7017 72.2889C76.8542 72.9393 76.4527 73.5818 75.8023 73.7343C75.1518 73.8869 74.5014 73.4854 74.3568 72.8349C73.9473 71.1004 73.1683 68.4905 72.3332 66.8524C71.4498 65.1258 70.165 63.5439 67.9647 60.8858C66.0695 58.5892 61.2192 56.9429 59.035 57.0634C55.1885 57.2963 52.1771 58.0431 50.9725 59.0629C50.1133 59.7857 45.7528 63.6402 44.4118 68.3058C43.2956 72.2005 43.8416 74.0716 43.8416 74.0877C44.0343 74.714 43.689 75.3886 43.0627 75.5974C42.9342 75.6455 42.8137 75.6696 42.6853 75.6696Z" fill="#231F20"/>
<path d="M55.0279 57.0635C47.4553 57.0635 41.296 50.9524 41.296 43.4441C41.296 35.9357 47.4553 29.8246 55.0279 29.8246C62.6004 29.8246 68.7597 35.9357 68.7597 43.4441C68.7597 50.9524 62.6004 57.0635 55.0279 57.0635ZM55.0279 32.2337C48.7803 32.2337 43.7051 37.2607 43.7051 43.4441C43.7051 49.6274 48.7883 54.6544 55.0279 54.6544C61.2754 54.6544 66.3506 49.6274 66.3506 43.4441C66.3506 37.2607 61.2754 32.2337 55.0279 32.2337Z" fill="#231F20"/>
<path d="M79.1027 70.5462C78.7173 70.5462 78.38 70.2731 78.3157 69.8796L69.0568 16.8314C68.9845 16.3977 69.2736 15.9802 69.7072 15.8999C70.1489 15.8276 70.5585 16.1167 70.6388 16.5503L79.8977 69.5986C79.97 70.0322 79.6809 70.4498 79.2473 70.5301C79.191 70.5381 79.1429 70.5462 79.1027 70.5462Z" fill="#231F20"/>
<path d="M62.9537 83.3145C60.7615 83.3145 58.9707 81.7406 58.9707 79.8053C58.9707 77.87 60.7534 76.296 62.9537 76.296C65.146 76.296 66.9287 77.87 66.9287 79.8053C66.9287 81.7406 65.146 83.3145 62.9537 83.3145ZM62.9537 77.9101C61.6448 77.9101 60.5768 78.7613 60.5768 79.8133C60.5768 80.8572 61.6448 81.7165 62.9537 81.7165C64.2627 81.7165 65.3227 80.8653 65.3227 79.8133C65.3227 78.7613 64.2627 77.9101 62.9537 77.9101Z" fill="#231F20"/>
<path d="M73.9633 92.3326C73.8348 92.3326 73.6983 92.3005 73.5779 92.2362C73.1924 92.0194 73.0479 91.5376 73.2567 91.1441L76.5652 85.0973C76.7739 84.7118 77.2638 84.5673 77.6573 84.7761C78.0427 84.9929 78.1873 85.4747 77.9785 85.8682L74.67 91.915C74.5255 92.18 74.2444 92.3326 73.9633 92.3326Z" fill="#231F20"/>
<path d="M70.5184 92.3005C70.3818 92.3005 70.2373 92.2684 70.1088 92.1881C69.7234 91.9632 69.6029 91.4734 69.8197 91.0879L73.2567 85.2418C73.4815 84.8644 73.9714 84.7279 74.3568 84.9527C74.7423 85.1776 74.8628 85.6674 74.6459 86.0529L71.209 91.899C71.0644 92.1559 70.7994 92.3005 70.5184 92.3005Z" fill="#231F20"/>
<path d="M66.9368 92.437C66.7923 92.437 66.6397 92.3969 66.5112 92.3166C66.1338 92.0837 66.0214 91.5858 66.2542 91.2084L69.908 85.3864C70.1409 85.009 70.6388 84.8966 71.0162 85.1294C71.3937 85.3623 71.5061 85.8602 71.2732 86.2376L67.6194 92.0596C67.4668 92.3085 67.2018 92.437 66.9368 92.437Z" fill="#231F20"/>
<path d="M62.0704 92.6217C61.9178 92.6217 61.7733 92.5816 61.6368 92.4932C61.2674 92.2523 61.1549 91.7545 61.3959 91.3851L65.1219 85.6113C65.3628 85.2419 65.8607 85.1294 66.2301 85.3703C66.5995 85.6113 66.7119 86.1091 66.471 86.4785L62.745 92.2523C62.5924 92.4932 62.3354 92.6217 62.0704 92.6217Z" fill="#231F20"/>
<path d="M59.0189 92.734C58.8824 92.734 58.7539 92.7019 58.6254 92.6296C58.2399 92.4128 58.0954 91.9229 58.3122 91.5375L61.5002 85.8199C61.7171 85.4264 62.2069 85.2979 62.5924 85.5067C62.9778 85.7235 63.1224 86.2134 62.9056 86.5988L59.7175 92.3164C59.573 92.5895 59.2999 92.734 59.0189 92.734Z" fill="#231F20"/>
<path d="M54.5701 92.8946C54.4336 92.8946 54.289 92.8625 54.1606 92.7822C53.7831 92.5574 53.6546 92.0595 53.8795 91.6821L57.2522 85.9966C57.4771 85.6111 57.975 85.4907 58.3524 85.7155C58.7378 85.9404 58.8583 86.4383 58.6334 86.8157L55.2607 92.5012C55.1162 92.7581 54.8512 92.8946 54.5701 92.8946Z" fill="#231F20"/>
<path d="M50.6593 93.0311C50.5228 93.0311 50.3863 92.999 50.2578 92.9267C49.8724 92.7099 49.7358 92.212 49.9607 91.8346L53.2049 86.1812C53.4218 85.7958 53.9196 85.6593 54.2971 85.8841C54.6825 86.1009 54.819 86.5988 54.5942 86.9762L51.3499 92.6296C51.2054 92.8865 50.9324 93.0311 50.6593 93.0311Z" fill="#231F20"/>
<path d="M46.869 93.1516C46.7245 93.1516 46.588 93.1115 46.4595 93.0392C46.0821 92.8063 45.9536 92.3165 46.1865 91.939L49.503 86.4303C49.7359 86.0528 50.2257 85.9243 50.6031 86.1572C50.9806 86.3901 51.109 86.88 50.8762 87.2574L47.5596 92.7662C47.4071 93.0151 47.1421 93.1516 46.869 93.1516Z" fill="#231F20"/>
<path d="M42.0107 93.2961C41.8661 93.2961 41.7216 93.2559 41.5851 93.1756C41.2076 92.9428 41.0952 92.4449 41.3281 92.0675L44.8374 86.4141C45.0702 86.0367 45.5681 85.9243 45.9455 86.1571C46.323 86.39 46.4354 86.8879 46.2025 87.2653L42.6933 92.9187C42.5407 93.1596 42.2757 93.2961 42.0107 93.2961Z" fill="#231F20"/>
<path d="M37.8269 93.3685C37.6824 93.3685 37.5298 93.3283 37.4013 93.24C37.0239 93.0071 36.9115 92.5092 37.1524 92.1318L41.2077 85.7156C41.4406 85.3382 41.9385 85.2257 42.3159 85.4667C42.6933 85.6995 42.8057 86.1974 42.5648 86.5748L38.5095 92.9911C38.3569 93.232 38.1 93.3685 37.8269 93.3685Z" fill="#231F20"/>
<path d="M34.3177 91.3929C34.149 91.3929 33.9724 91.3367 33.8278 91.2243C33.4745 90.9513 33.4102 90.4454 33.6833 90.1001L39.0395 83.1779C39.3125 82.8246 39.8184 82.7684 40.1637 83.0334C40.5171 83.3064 40.5813 83.8123 40.3083 84.1576L34.9521 91.0798C34.7915 91.2885 34.5586 91.3929 34.3177 91.3929Z" fill="#231F20"/>
<path d="M32.8641 87.3377C32.6955 87.3377 32.5269 87.2815 32.3743 87.1691C32.021 86.896 31.9567 86.3982 32.2217 86.0448L37.6422 78.9541C37.9152 78.6007 38.4131 78.5365 38.7664 78.8015C39.1198 79.0745 39.184 79.5724 38.919 79.9257L33.4985 87.0165C33.346 87.2253 33.105 87.3377 32.8641 87.3377Z" fill="#231F20"/>
<path d="M31.756 80.6164C31.5633 80.6164 31.3625 80.5441 31.2099 80.3996C30.8887 80.0944 30.8646 79.5885 31.1698 79.2673L36.7589 73.2686C37.064 72.9474 37.5699 72.9233 37.8911 73.2285C38.2124 73.5336 38.2365 74.0396 37.9313 74.3608L32.3422 80.3594C32.1816 80.528 31.9728 80.6164 31.756 80.6164Z" fill="#231F20"/>
<path d="M30.969 75.8623C30.7763 75.8623 30.5755 75.79 30.4229 75.6455C30.1017 75.3403 30.0776 74.8344 30.3828 74.5132L35.9558 68.5226C36.261 68.2014 36.7669 68.1853 37.0881 68.4824C37.4093 68.7876 37.4334 69.2935 37.1283 69.6147L31.5552 75.6053C31.4026 75.7739 31.1858 75.8623 30.969 75.8623Z" fill="#231F20"/>
<path d="M30.2141 71.2691C30.0134 71.2691 29.8126 71.1969 29.6601 71.0443C29.3388 70.7391 29.3308 70.2252 29.636 69.912L35.2251 64.1061C35.5302 63.7849 36.0442 63.7769 36.3573 64.082C36.6785 64.3872 36.6866 64.9011 36.3814 65.2143L30.7923 71.0202C30.6397 71.1888 30.431 71.2691 30.2141 71.2691Z" fill="#231F20"/>
<path d="M29.3549 65.969C29.1622 65.969 28.9695 65.9047 28.8169 65.7602C28.4877 65.4631 28.4556 64.9572 28.7527 64.6279L34.2615 58.5008C34.5586 58.1715 35.0645 58.1474 35.3937 58.4365C35.723 58.7337 35.7551 59.2396 35.458 59.5688L29.9492 65.6959C29.7966 65.8806 29.5718 65.969 29.3549 65.969Z" fill="#231F20"/>
<path d="M28.5439 60.9822C28.3351 60.9822 28.1263 60.9019 27.9657 60.7333C27.6605 60.4121 27.6685 59.9062 27.9898 59.601L33.2095 54.566C33.5307 54.2609 34.0366 54.2689 34.3417 54.5901C34.6469 54.9113 34.6389 55.4172 34.3177 55.7224L29.0979 60.7574C28.9454 60.91 28.7446 60.9822 28.5439 60.9822Z" fill="#231F20"/>
<path d="M27.7729 56.2363C27.5802 56.2363 27.3875 56.1721 27.2349 56.0355C26.9056 55.7384 26.8735 55.2325 27.1706 54.9033L32.6232 48.7922C32.9204 48.463 33.4263 48.4308 33.7555 48.728C34.0847 49.0251 34.1169 49.531 33.8197 49.8602L28.3672 55.9713C28.2146 56.148 27.9897 56.2363 27.7729 56.2363Z" fill="#231F20"/>
<path d="M27.0582 51.8758C26.8816 51.8758 26.7129 51.8196 26.5604 51.7072C26.2151 51.4342 26.1508 50.9283 26.4238 50.583L31.7479 43.8295C32.021 43.4842 32.5269 43.4199 32.8722 43.693C33.2175 43.966 33.2817 44.4719 33.0087 44.8172L27.6846 51.5707C27.532 51.7715 27.2992 51.8758 27.0582 51.8758Z" fill="#231F20"/>
<path d="M25.9661 45.1544C25.7573 45.1544 25.5485 45.0741 25.3959 44.9135C25.0828 44.6003 25.0908 44.0864 25.404 43.7812L30.9128 38.3367C31.226 38.0235 31.7399 38.0235 32.0451 38.3447C32.3582 38.6579 32.3502 39.1718 32.037 39.477L26.5282 44.9215C26.3756 45.0741 26.1669 45.1544 25.9661 45.1544Z" fill="#231F20"/>
<path d="M25.155 40.4084C24.9784 40.4084 24.7937 40.3522 24.6491 40.2237C24.3038 39.9427 24.2557 39.4368 24.5367 39.0914L29.8769 32.5708C30.1579 32.2255 30.6638 32.1773 31.0091 32.4584C31.3545 32.7395 31.4026 33.2454 31.1216 33.5907L25.7814 40.1113C25.6208 40.3121 25.3879 40.4084 25.155 40.4084Z" fill="#231F20"/>
<path d="M24.1192 34.7071C23.9345 34.7071 23.7498 34.6429 23.5972 34.5144C23.2599 34.2253 23.2198 33.7194 23.5089 33.3821L28.9614 27.0301C29.2505 26.6928 29.7564 26.6527 30.0937 26.9418C30.431 27.2309 30.4711 27.7368 30.1821 28.0741L24.7295 34.426C24.5689 34.6107 24.344 34.7071 24.1192 34.7071Z" fill="#231F20"/>
<path d="M23.0912 29.0536C22.9065 29.0536 22.7138 28.9893 22.5612 28.8609C22.224 28.5718 22.1918 28.0659 22.4809 27.7286L28.0058 21.3605C28.2949 21.0233 28.8008 20.9912 29.1381 21.2802C29.4753 21.5693 29.5075 22.0752 29.2184 22.4125L23.6935 28.7806C23.5409 28.9572 23.3161 29.0536 23.0912 29.0536Z" fill="#231F20"/>
<path d="M22.1116 23.6412C21.9108 23.6412 21.7101 23.5689 21.5575 23.4163C21.2363 23.1112 21.2283 22.5972 21.5334 22.2841L27.1948 16.3978C27.4999 16.0766 28.0139 16.0686 28.3271 16.3738C28.6483 16.6789 28.6563 17.1928 28.3512 17.506L22.6898 23.3922C22.5292 23.5609 22.3204 23.6412 22.1116 23.6412Z" fill="#231F20"/>
<path d="M21.3246 19.2004C21.1158 19.2004 20.899 19.1201 20.7464 18.9514C20.4413 18.6302 20.4493 18.1243 20.7705 17.8192L26.5363 12.3023C26.8575 11.9972 27.3634 12.0052 27.6686 12.3264C27.9737 12.6476 27.9657 13.1536 27.6445 13.4587L21.8787 18.9755C21.7181 19.1281 21.5173 19.2004 21.3246 19.2004Z" fill="#231F20"/>
</svg>
