<svg width="100" height="101" viewBox="0 0 100 101" fill="none" xmlns="http://www.w3.org/2000/svg">
<path d="M23.4169 8.33878C23.4169 8.33878 -12.2563 33.7249 4.45722 69.7177C21.1707 105.711 89.9978 101.53 97.8359 66.5045C105.682 31.4787 82.9786 19.5851 57.8577 23.4456C32.729 27.2984 23.4169 8.33878 23.4169 8.33878Z" fill="#6DC3CC"/>
<path d="M73.534 26.9163C73.4638 26.9163 73.3936 26.9085 73.3234 26.9007L42.7197 21.2775C42.4857 21.2307 42.2673 21.1215 42.1035 20.95C41.6746 20.521 40.4969 18.813 43.3514 14.8199C45.2934 12.098 48.491 11.6378 50.8229 11.2947C51.8602 11.1465 52.8351 11.0061 53.3732 10.7175C53.9582 10.4056 53.6306 9.01733 53.2094 7.4965C52.9755 6.6386 52.7493 5.82749 52.7493 5.13337C52.7493 3.82312 53.4746 2.39588 54.6445 1.3976C56.0171 0.23553 57.8655 -0.224617 59.8543 0.102945C61.3907 0.360316 62.5684 1.14803 63.2547 2.38808C64.2764 4.21308 64.175 7.03635 62.9895 9.94542C62.5606 10.9983 62.584 11.3493 62.6308 11.4662C62.8258 11.9108 64.4012 12.5269 66.2184 13.2444C66.9827 13.5408 67.8562 13.884 68.8389 14.2895C74.5556 16.6449 75.1561 22.9309 74.6726 25.9258C74.6258 26.2378 74.4464 26.5107 74.1891 26.6979C74.0097 26.8461 73.7757 26.9163 73.534 26.9163ZM43.8583 19.1094L72.4732 24.366C72.5122 22.2992 72.0521 18.1423 67.9732 16.4655C66.9983 16.0677 66.1404 15.7246 65.3917 15.436C62.5216 14.3129 61.0788 13.7514 60.5016 12.4021C60.0415 11.3337 60.3924 10.1716 60.8448 9.07192C61.7339 6.88817 61.8899 4.71222 61.2348 3.54235C60.8916 2.92622 60.3223 2.56746 59.4878 2.42708C57.8265 2.14631 56.7659 2.69225 56.1731 3.19919C55.44 3.82312 55.1047 4.64203 55.1047 5.14897C55.1047 5.53112 55.2996 6.21745 55.479 6.88817C55.9937 8.75995 56.7814 11.5832 54.4807 12.7999C53.5838 13.2756 52.4139 13.4472 51.1739 13.6266C49.0447 13.9386 46.6348 14.2817 45.27 16.1925C44.1391 17.7445 43.8973 18.6648 43.8583 19.1094Z" fill="#231F20"/>
<path d="M70.812 84.6999C70.7496 84.6999 70.6794 84.6921 70.6092 84.6843L24.1109 76.6356C23.8067 76.581 23.5338 76.4095 23.3544 76.1521C23.175 75.8947 23.1048 75.5827 23.1594 75.2786L33.93 15.2801C34.0392 14.6561 34.6319 14.2272 35.2559 14.3286L43.6789 15.5764C44.3184 15.67 44.763 16.2627 44.6616 16.9023C44.568 17.5418 43.9675 17.9863 43.3357 17.885L36.028 16.8009L25.663 74.5221L69.8527 82.1652L80.1553 24.2958L73.6976 22.9622C73.0659 22.8296 72.6604 22.2135 72.793 21.5817C72.9256 20.95 73.5417 20.5445 74.1734 20.677L81.7385 22.2447C82.3547 22.3772 82.7602 22.97 82.651 23.5939L71.9507 83.725C71.8649 84.2944 71.3657 84.6999 70.812 84.6999Z" fill="#231F20"/>
<path d="M76.2012 95.9462C76.1388 95.9462 76.0686 95.9384 75.9984 95.9306L15.6645 85.5032C15.0328 85.394 14.6038 84.7935 14.713 84.1618L27.8 5.21143C27.8234 5.07884 27.8623 4.95405 27.9247 4.84487C28.3693 4.03376 29.7497 2.72351 32.1596 3.01988C34.4136 3.29284 53.5604 6.63866 54.3793 6.77905C55.0188 6.88823 55.44 7.49656 55.3308 8.13609C55.2216 8.77562 54.6055 9.20457 53.9738 9.08758C53.7788 9.05638 34.0704 5.60918 31.8789 5.34401C30.8026 5.21143 30.2644 5.64038 30.0617 5.86655L17.2088 83.4053L75.2575 93.4427C80.2021 66.528 89.2491 17.1987 89.4285 15.8962C89.3115 15.5998 88.1494 14.9525 87.0576 14.6249L62.3812 10.5226C61.7416 10.4134 61.3127 9.8129 61.4219 9.17337C61.5311 8.53384 62.1316 8.11269 62.7711 8.21408L87.5177 12.3242C87.5645 12.332 87.6035 12.3398 87.6503 12.3554C88.3912 12.566 92.0802 13.7592 91.7604 16.2004C91.5577 17.7836 77.9482 91.8517 77.3633 95.0025C77.2463 95.5485 76.755 95.9462 76.2012 95.9462Z" fill="#231F20"/>
<path d="M70.0243 101C68.7687 101 67.8015 100.821 67.552 100.774C65.7582 100.548 16.7408 94.5034 13.5588 94.168C11.8664 93.9886 10.6887 93.4583 10.0492 92.5848C9.59682 91.9687 9.51881 91.2979 9.589 90.8456L19.8137 10.7644C19.8917 10.1794 20.383 9.74268 20.9757 9.74268H27.5894C28.2367 9.74268 28.7592 10.2652 28.7592 10.9125C28.7592 11.5599 28.2367 12.0824 27.5894 12.0824H22.0052L11.9054 91.1576C11.9444 91.2745 12.3577 91.6879 13.7927 91.8361C17.0372 92.1714 65.805 98.1924 67.8796 98.4497C67.9186 98.4497 67.9497 98.4575 67.9887 98.4653C68.0043 98.4653 69.5252 98.7851 71.2254 98.5823L72.403 94.0198C72.5668 93.3959 73.2063 93.0215 73.8302 93.1775C74.4542 93.3413 74.8285 93.9808 74.6726 94.6048L73.2999 99.9004C73.1907 100.329 72.8476 100.657 72.4108 100.75C71.5763 100.938 70.7496 101 70.0243 101ZM11.8897 91.2511V91.2589C11.8897 91.2589 11.8897 91.2589 11.8897 91.2511Z" fill="#231F20"/>
<path d="M66.3119 68.47C66.2339 68.47 66.1637 68.4622 66.0857 68.4466L40.8634 63.541C40.2317 63.4162 39.8183 62.8001 39.9353 62.1683C40.0601 61.5366 40.6762 61.1233 41.308 61.2403L66.5303 66.1459C67.162 66.2707 67.5753 66.8868 67.4584 67.5185C67.3492 68.0801 66.8578 68.47 66.3119 68.47Z" fill="#231F20"/>
<path d="M67.9965 59.3216C67.9185 59.3216 67.8484 59.3138 67.7704 59.2982L42.548 54.3926C41.9163 54.2678 41.503 53.6516 41.62 53.0199C41.7447 52.3882 42.3609 51.9748 42.9926 52.0918L68.2149 56.9975C68.8467 57.1222 69.26 57.7384 69.143 58.3701C69.0338 58.9394 68.5425 59.3216 67.9965 59.3216Z" fill="#231F20"/>
<path d="M69.8996 48.7225C69.8216 48.7225 69.7514 48.7147 69.6734 48.6991L44.4511 43.7934C43.8193 43.6686 43.406 43.0525 43.523 42.4208C43.6478 41.7891 44.2717 41.3757 44.8956 41.4927L70.118 46.3983C70.7497 46.5231 71.163 47.1392 71.046 47.771C70.9369 48.3403 70.4455 48.7225 69.8996 48.7225Z" fill="#231F20"/>
<path d="M72.0677 39.5118C71.9897 39.5118 71.9195 39.504 71.8415 39.4884L46.6192 34.5827C45.9875 34.458 45.5741 33.8418 45.6911 33.2101C45.8159 32.5784 46.432 32.165 47.0638 32.282L72.2861 37.1876C72.9178 37.3124 73.3311 37.9286 73.2142 38.5603C73.105 39.1218 72.6136 39.5118 72.0677 39.5118Z" fill="#231F20"/>
<path d="M36.0436 63.0808C35.6692 63.0808 35.3182 62.9014 35.0921 62.5972L33.3217 60.1405C32.9395 59.618 33.0643 58.8849 33.5868 58.5105C34.1094 58.1284 34.8425 58.2531 35.2169 58.7757L36.0046 59.8676L38.0713 56.7713C38.4301 56.2332 39.1554 56.085 39.6936 56.4438C40.2317 56.8025 40.3799 57.5278 40.0211 58.066L37.0185 62.566C36.8079 62.8858 36.4491 63.0808 36.067 63.0886C36.0514 63.0808 36.0514 63.0808 36.0436 63.0808Z" fill="#231F20"/>
<path d="M37.307 54.0261C36.9327 54.0261 36.5817 53.8467 36.3555 53.5426L34.5852 51.0858C34.203 50.5633 34.3278 49.8302 34.8503 49.4558C35.3728 49.0737 36.106 49.1907 36.4803 49.721L37.2681 50.8129L39.3348 47.7166C39.6936 47.1785 40.4189 47.0303 40.957 47.3891C41.4952 47.7478 41.6433 48.4731 41.2846 49.0113L38.2819 53.5114C38.0714 53.8311 37.7126 54.0261 37.3304 54.0339C37.3226 54.0261 37.3148 54.0261 37.307 54.0261Z" fill="#231F20"/>
<path d="M39.3973 43.3882C39.0229 43.3882 38.6719 43.2088 38.4457 42.9046L36.6754 40.4479C36.2932 39.9253 36.418 39.1922 36.9405 38.8179C37.4631 38.4357 38.1962 38.5605 38.5706 39.083L39.3583 40.1671L41.425 37.0709C41.7838 36.5327 42.5091 36.3846 43.0472 36.7433C43.5854 37.1021 43.7335 37.8274 43.3748 38.3655L40.3721 42.8656C40.1616 43.1854 39.8028 43.3804 39.4206 43.3882C39.4128 43.3882 39.4051 43.3882 39.3973 43.3882Z" fill="#231F20"/>
<path d="M41.0896 34.0292C40.7153 34.0292 40.3643 33.8498 40.1382 33.5456L38.3677 31.0889C37.9856 30.5664 38.1104 29.8332 38.6329 29.4589C39.1555 29.0767 39.8886 29.2015 40.2629 29.724L41.0506 30.8159L43.1174 27.7197C43.4762 27.1815 44.2015 27.0334 44.7396 27.3921C45.2777 27.7509 45.426 28.4762 45.0672 29.0143L42.0645 33.5144C41.8539 33.8342 41.4952 34.0292 41.113 34.037C41.1052 34.0292 41.0974 34.0292 41.0896 34.0292Z" fill="#231F20"/>
<path d="M67.7391 100.4C67.5754 100.4 67.4116 100.345 67.2712 100.244C66.9281 99.9862 66.8579 99.4949 67.1152 99.1517L71.0694 93.9029C71.3268 93.5598 71.8181 93.4896 72.1613 93.7469C72.5044 94.0043 72.5746 94.4957 72.3172 94.8388L68.3631 100.088C68.2149 100.29 67.9809 100.4 67.7391 100.4Z" fill="#231F20"/>
<path d="M63.8396 99.6585C63.6758 99.6585 63.5121 99.6039 63.3717 99.5025C63.0285 99.2451 62.9583 98.7538 63.2157 98.4106L67.1698 93.1618C67.4272 92.8187 67.9186 92.7485 68.2617 93.0059C68.6049 93.2632 68.6751 93.7546 68.4177 94.0977L64.4636 99.3465C64.3076 99.5493 64.0736 99.6585 63.8396 99.6585Z" fill="#231F20"/>
<path d="M59.3239 99.3543C59.1523 99.3543 58.9807 99.2997 58.8326 99.1827C58.4972 98.9097 58.4426 98.4184 58.7156 98.083L63.4964 92.1869C63.7694 91.8515 64.2608 91.7969 64.5961 92.0699C64.9315 92.3429 64.986 92.8342 64.7131 93.1696L59.9323 99.0657C59.7763 99.2607 59.5501 99.3543 59.3239 99.3543Z" fill="#231F20"/>
<path d="M55.3775 98.8708C55.1981 98.8708 55.0266 98.8084 54.8784 98.6914C54.5508 98.4185 54.504 97.9271 54.777 97.5917L59.823 91.5474C60.096 91.2199 60.5951 91.1731 60.9227 91.4461C61.2502 91.719 61.297 92.2104 61.0241 92.5457L55.9781 98.59C55.8221 98.7772 55.6037 98.8708 55.3775 98.8708Z" fill="#231F20"/>
<path d="M51.5092 98.3951C51.322 98.3951 51.1348 98.3327 50.9866 98.1923C50.6669 97.9037 50.6435 97.4124 50.932 97.0926L56.485 90.9469C56.7736 90.6271 57.2649 90.6037 57.5847 90.8923C57.9045 91.1809 57.9279 91.6722 57.6393 91.992L52.0863 98.1377C51.9382 98.3093 51.7197 98.3951 51.5092 98.3951Z" fill="#231F20"/>
<path d="M47.017 97.7713C46.8142 97.7713 46.6192 97.6933 46.4632 97.5452C46.1591 97.241 46.1591 96.7496 46.4632 96.4455L52.3594 90.5494C52.6635 90.2452 53.1548 90.2452 53.459 90.5494C53.7632 90.8535 53.7632 91.3449 53.459 91.649L47.5629 97.5452C47.4147 97.6933 47.2198 97.7713 47.017 97.7713Z" fill="#231F20"/>
<path d="M42.1425 97.0302C41.9632 97.0302 41.7838 96.9678 41.6356 96.8431C41.308 96.5623 41.2768 96.0709 41.5576 95.7434L47.095 89.3403C47.3757 89.0127 47.867 88.9815 48.1946 89.2623C48.5222 89.5431 48.5534 90.0344 48.2726 90.362L42.7352 96.7651C42.5793 96.9366 42.3609 97.0302 42.1425 97.0302Z" fill="#231F20"/>
<path d="M37.1979 96.4143C37.0185 96.4143 36.8469 96.3519 36.6987 96.2349C36.3712 95.9619 36.3244 95.4628 36.6051 95.1352L42.1737 88.4982C42.4467 88.1706 42.938 88.1238 43.2734 88.4046C43.6009 88.6775 43.6477 89.1767 43.3669 89.5042L37.7984 96.1413C37.6424 96.3207 37.424 96.4143 37.1979 96.4143Z" fill="#231F20"/>
<path d="M32.6977 95.8525C32.5262 95.8525 32.3468 95.7902 32.1986 95.6732C31.8711 95.4002 31.8243 94.9089 32.0972 94.5735L37.7672 87.7415C38.0401 87.4139 38.5315 87.3671 38.8669 87.6401C39.1944 87.9131 39.2412 88.4044 38.9682 88.7398L33.2983 95.5718C33.1423 95.7512 32.9239 95.8525 32.6977 95.8525Z" fill="#231F20"/>
<path d="M27.3788 95.3224C27.2072 95.3224 27.0278 95.26 26.8797 95.143C26.5521 94.87 26.5053 94.3787 26.7783 94.0433L32.7446 86.8681C33.0175 86.5406 33.5089 86.486 33.8443 86.7667C34.1718 87.0397 34.2186 87.5311 33.9456 87.8664L27.9793 95.0416C27.8233 95.2288 27.6049 95.3224 27.3788 95.3224Z" fill="#231F20"/>
<path d="M23.4247 94.4643C23.2375 94.4643 23.0581 94.4019 22.9099 94.2694C22.5901 93.9808 22.5589 93.4894 22.8475 93.1697L29.0244 86.2051C29.313 85.8775 29.8043 85.8541 30.1241 86.1427C30.4438 86.4312 30.4751 86.9226 30.1865 87.2424L24.0096 94.207C23.8536 94.3785 23.643 94.4643 23.4247 94.4643Z" fill="#231F20"/>
<path d="M19.0338 94.4175C18.8466 94.4175 18.6672 94.3551 18.5112 94.2225C18.1914 93.9339 18.1603 93.4426 18.4488 93.1228L25.195 85.5421C25.4836 85.2223 25.975 85.1911 26.2947 85.4797C26.6145 85.7683 26.6457 86.2596 26.3571 86.5794L19.6109 94.1601C19.4627 94.3317 19.2521 94.4175 19.0338 94.4175Z" fill="#231F20"/>
<path d="M14.3621 93.8247C14.1749 93.8247 13.9955 93.7623 13.8395 93.6297C13.5198 93.3412 13.4886 92.8498 13.7771 92.53L20.7027 84.7621C20.9913 84.4424 21.4827 84.4112 21.8024 84.6997C22.1222 84.9883 22.1534 85.4797 21.8648 85.7994L14.9392 93.5673C14.7833 93.7389 14.5726 93.8247 14.3621 93.8247Z" fill="#231F20"/>
<path d="M10.8992 90.6272C10.7121 90.6272 10.5249 90.5648 10.3767 90.4245C10.057 90.1359 10.0336 89.6445 10.3221 89.3248L15.2824 83.8186C15.571 83.4988 16.0623 83.4755 16.382 83.764C16.7018 84.0526 16.7252 84.5439 16.4366 84.8637L11.4764 90.3699C11.3204 90.5414 11.1098 90.6272 10.8992 90.6272Z" fill="#231F20"/>
<path d="M11.5466 85.5343C11.336 85.5343 11.1176 85.4485 10.9695 85.277C10.6809 84.9572 10.7043 84.4658 11.0241 84.1773L15.3369 80.2933C15.6567 80.0047 16.1481 80.0281 16.4366 80.3479C16.7252 80.6677 16.7018 81.159 16.382 81.4476L12.0691 85.3315C11.9209 85.4641 11.7338 85.5343 11.5466 85.5343Z" fill="#231F20"/>
<path d="M12.3032 79.599C12.0692 79.599 11.8352 79.4899 11.6792 79.2871C11.4218 78.9439 11.492 78.4526 11.8352 78.1952L16.5459 74.6544C16.889 74.397 17.3804 74.4672 17.6377 74.8104C17.8951 75.1536 17.8249 75.6449 17.4817 75.9023L12.7711 79.4431C12.6307 79.5523 12.4669 79.599 12.3032 79.599Z" fill="#231F20"/>
<path d="M13.3794 73.399C13.1454 73.399 12.9114 73.2976 12.7632 73.0948C12.498 72.7517 12.5682 72.2603 12.9036 72.003L17.3491 68.5947C17.6922 68.3296 18.1836 68.3998 18.441 68.7351C18.7061 69.0783 18.636 69.5696 18.3006 69.827L13.8551 73.2352C13.7069 73.3444 13.5431 73.399 13.3794 73.399Z" fill="#231F20"/>
<path d="M13.7772 68.0798C13.5432 68.0798 13.3092 67.9707 13.1532 67.7757C12.8959 67.4325 12.9583 66.9412 13.3014 66.6838L18.5892 62.6595C18.9324 62.4021 19.4237 62.4645 19.6811 62.8076C19.9385 63.1508 19.8761 63.6422 19.5329 63.8995L14.2451 67.9239C14.1048 68.0253 13.9409 68.0798 13.7772 68.0798Z" fill="#231F20"/>
<path d="M14.3387 63.6656C14.1047 63.6656 13.8707 63.5642 13.7226 63.3615C13.4574 63.0183 13.5276 62.527 13.8629 62.2696L19.681 57.7929C20.0242 57.5277 20.5078 57.5901 20.7729 57.9333C21.0381 58.2764 20.9679 58.7678 20.6326 59.0252L14.8144 63.5019C14.674 63.611 14.5024 63.6656 14.3387 63.6656Z" fill="#231F20"/>
<path d="M15.1576 57.2236C14.9236 57.2236 14.6975 57.1222 14.5415 56.9272C14.2763 56.5919 14.3309 56.1005 14.6741 55.8275L20.3518 51.3431C20.695 51.0779 21.1785 51.1325 21.4515 51.4756C21.7167 51.811 21.6621 52.3024 21.3189 52.5753L15.6411 57.0598C15.5008 57.169 15.3292 57.2236 15.1576 57.2236Z" fill="#231F20"/>
<path d="M15.9063 51.3822C15.6646 51.3822 15.4228 51.2652 15.2668 51.0468C15.0172 50.6958 15.103 50.2045 15.454 49.9627L21.7322 45.5562C22.0832 45.3067 22.5746 45.3924 22.8163 45.7434C23.0581 46.0944 22.9801 46.5857 22.6292 46.8275L16.3509 51.234C16.2183 51.3354 16.0623 51.3822 15.9063 51.3822Z" fill="#231F20"/>
<path d="M16.421 46.8742C16.2026 46.8742 15.9843 46.7806 15.8283 46.6012C15.5475 46.2737 15.5865 45.7823 15.9063 45.5016L22.3016 39.9798C22.6291 39.699 23.1205 39.7302 23.4012 40.0578C23.682 40.3853 23.643 40.8767 23.3233 41.1574L16.928 46.6792C16.7798 46.8118 16.6004 46.8742 16.421 46.8742Z" fill="#231F20"/>
<path d="M17.2477 40.861C17.0059 40.861 16.772 40.7518 16.616 40.5412C16.3586 40.198 16.4366 39.7067 16.7798 39.4493L23.5572 34.4501C23.9004 34.1927 24.3917 34.2707 24.6491 34.6139C24.9064 34.957 24.8285 35.4484 24.4853 35.7057L17.7079 40.705C17.5753 40.8142 17.4115 40.861 17.2477 40.861Z" fill="#231F20"/>
<path d="M17.8873 35.8384C17.6689 35.8384 17.4505 35.7448 17.2945 35.5654C17.0138 35.2378 17.045 34.7465 17.3725 34.4657L24.5399 28.2654C24.8675 27.9847 25.3588 28.0159 25.6396 28.3434C25.9204 28.671 25.8892 29.1623 25.5616 29.4431L18.3942 35.6434C18.2538 35.776 18.0744 35.8384 17.8873 35.8384Z" fill="#231F20"/>
<path d="M18.4566 31.3929C18.2382 31.3929 18.0199 31.2993 17.8639 31.12C17.5831 30.7924 17.6221 30.3011 17.9497 30.0203L25.2964 23.781C25.624 23.5002 26.1154 23.5392 26.3961 23.8668C26.6769 24.1944 26.6379 24.6857 26.3103 24.9665L18.9636 31.2058C18.8154 31.3305 18.636 31.3929 18.4566 31.3929Z" fill="#231F20"/>
<path d="M19.0415 26.7916C18.8465 26.7916 18.6516 26.7214 18.4956 26.5654C18.1836 26.2612 18.1836 25.7699 18.48 25.4657L25.4524 18.3451C25.7566 18.041 26.2479 18.0332 26.5521 18.3295C26.864 18.6337 26.864 19.1251 26.5677 19.4292L19.5953 26.5498C19.4471 26.7136 19.2443 26.7916 19.0415 26.7916Z" fill="#231F20"/>
<path d="M19.5797 22.6189C19.3769 22.6189 19.182 22.5409 19.026 22.3927C18.7218 22.0886 18.7218 21.5972 19.026 21.293L26.9888 13.3224C27.293 13.0182 27.7844 13.0182 28.0885 13.3224C28.3927 13.6265 28.3927 14.1179 28.0885 14.422L20.1256 22.3927C19.9774 22.5409 19.7747 22.6189 19.5797 22.6189Z" fill="#231F20"/>
<path d="M20.1724 17.9707C19.954 17.9707 19.7279 17.8771 19.5797 17.6977C19.2989 17.3701 19.3457 16.8788 19.6733 16.598L27.0902 10.3275C27.4178 10.0468 27.9092 10.0936 28.1899 10.4211C28.4707 10.7487 28.4239 11.24 28.0963 11.5208L20.6794 17.7913C20.5312 17.9083 20.3518 17.9707 20.1724 17.9707Z" fill="#231F20"/>
</svg>
