<svg width="104" height="98" viewBox="0 0 104 98" fill="none" xmlns="http://www.w3.org/2000/svg">
<path d="M24.4974 0C24.4974 0 -12.8218 26.5575 4.66289 64.2112C22.1476 101.865 94.1506 97.4917 102.35 60.8497C110.558 24.2077 86.8075 11.7653 60.5275 15.8039C34.2474 19.8345 24.4974 0 24.4974 0Z" fill="#6ACCB2"/>
<path d="M37.7885 90.8665C37.6335 90.8665 37.4785 90.8339 37.3316 90.7768C36.8421 90.581 36.5321 90.0914 36.5647 89.5611C36.5729 89.4306 37.3479 76.1804 29.8743 74.7852C27.9162 74.418 25.9009 74.2385 23.9509 74.0672C19.3492 73.6511 15.0005 73.2676 12.7567 70.4364C11.4513 68.7965 11.0271 66.5528 11.4513 63.5911C12.8791 53.5718 20.9484 13.8702 21.2747 12.2792C21.3481 11.7244 21.9438 7.86522 24.7015 5.7602C26.2028 4.60978 28.0385 4.20183 30.1435 4.52819C36.6054 5.53175 73.0516 13.087 75.5401 13.6091C76.2499 13.6663 80.2234 14.0905 82.4997 16.9135C83.8623 18.6106 84.3355 20.7809 83.9031 23.3754C82.5976 31.2244 73.4351 75.1442 73.3453 75.5848C72.8476 78.7423 70.8405 84.013 66.5571 83.4337C62.2736 82.8463 54.2697 80.5617 53.9351 80.4638C53.8699 80.4475 48.7542 78.9707 46.3881 81.5735C43.508 84.7391 38.7676 90.3607 38.7186 90.4178C38.482 90.7115 38.1394 90.8665 37.7885 90.8665ZM28.781 6.86982C27.7774 6.86982 26.9207 7.14723 26.1864 7.70204C24.1059 9.27672 23.698 12.5893 23.6898 12.6219C23.6898 12.6545 23.6816 12.6953 23.6735 12.728C23.5919 13.1359 15.3105 53.8329 13.8664 63.9419C13.54 66.2019 13.8011 67.8337 14.666 68.9189C16.2488 70.9178 19.9122 71.2523 24.1549 71.6277C26.162 71.8072 28.2425 71.9948 30.3067 72.3783C37.1766 73.6592 38.686 81.6551 38.9715 86.3383C40.6197 84.4046 42.8961 81.7693 44.5686 79.9335C47.9791 76.1804 54.3512 78.0406 54.6205 78.1222C54.6857 78.1385 62.7795 80.4475 66.8916 81.0105C69.8207 81.4266 70.9303 75.2095 70.9384 75.1442C71.0445 74.6465 80.1908 30.7675 81.488 22.9756C81.7981 21.1072 81.4962 19.5815 80.5905 18.4556C78.8445 16.2853 75.3443 16.0487 75.3117 16.0487C75.2464 16.0487 75.1893 16.0405 75.124 16.0242C74.7324 15.9426 36.2465 7.96312 29.7601 6.95141C29.4256 6.90246 29.0992 6.86982 28.781 6.86982Z" fill="#231F20"/>
<path d="M44.9031 97.516C44.593 97.516 44.2993 97.4018 44.0708 97.1897L35.7161 89.4223C35.5529 89.2755 35.4387 89.0878 35.3734 88.8757C34.3046 85.3021 28.8544 82.9115 28.2343 82.6504C27.5734 82.4709 22.6209 81.1083 20.6301 80.7085C18.1579 80.2109 14.6251 74.5485 13.2217 72.1416C12.8791 71.5542 13.0831 70.8117 13.6624 70.469C14.2416 70.1263 14.9923 70.3222 15.3349 70.9096C17.5134 74.6464 20.214 78.1058 21.1115 78.3098C23.3226 78.7504 28.732 80.2435 28.9604 80.3088C29.0012 80.3169 29.0502 80.3332 29.091 80.3496C29.3765 80.4638 35.9445 83.1399 37.6089 87.8395L44.7073 94.4401C46.3472 92.2698 50.1656 87.8395 54.1962 87.5947C57.6964 87.3744 62.1512 89.0062 65.4148 90.1974C66.6223 90.638 67.7645 91.0541 68.2377 91.1276L68.3765 91.152C71.6727 91.6661 76.2091 91.5682 77.539 84.7799C79.285 75.9192 89.1737 34.8877 89.2716 34.4716C90.2181 31.0122 90.7566 25.6599 89.035 24.485C85.8285 22.2984 80.4599 18.276 80.411 18.2352C79.8725 17.8273 79.7583 17.0603 80.1662 16.5218C80.5742 15.9834 81.3411 15.8691 81.8796 16.2771C81.9367 16.3179 87.2482 20.3076 90.4139 22.4616C94.167 25.0235 92.0946 33.4191 91.6377 35.0754C91.548 35.4507 81.6674 76.4332 79.9377 85.2449C79.0484 89.7569 76.258 94.8562 67.993 93.5671L67.8543 93.5426C67.1445 93.4366 66.0675 93.0368 64.5662 92.4901C61.6861 91.4376 57.3211 89.8466 54.343 90.0343C51.006 90.2464 47.1305 95.101 45.9148 96.9531C45.719 97.255 45.3926 97.4508 45.0418 97.4997C45.001 97.516 44.952 97.516 44.9031 97.516Z" fill="#231F20"/>
<path d="M48.33 66.8057C35.2511 66.8057 24.6118 56.1664 24.6118 43.0875C24.6118 30.0087 35.2511 19.3694 48.33 19.3694C61.4088 19.3694 72.0481 30.0087 72.0481 43.0875C72.0481 56.1664 61.4088 66.8057 48.33 66.8057ZM48.33 21.8171C36.6055 21.8171 27.0595 31.3549 27.0595 43.0875C27.0595 54.812 36.5974 64.358 48.33 64.358C60.0544 64.358 69.6005 54.8202 69.6005 43.0875C69.6005 31.3631 60.0544 21.8171 48.33 21.8171Z" fill="#231F20"/>
<path d="M47.9383 53.8245C47.1469 53.8245 46.2983 53.751 45.3764 53.596C39.869 52.6577 38.0577 46.8567 37.8619 43.9195C37.8211 43.2423 38.327 42.663 39.0042 42.6222C39.6814 42.5814 40.2607 43.0872 40.3014 43.7644C40.3178 44.0337 40.8155 50.3406 45.7843 51.1891C50.9408 52.0703 53.16 49.8021 54.6613 47.4605C55.0284 46.8893 55.7872 46.7261 56.3502 47.0851C56.9213 47.4523 57.0845 48.2029 56.7255 48.774C55.2813 51.0259 52.8582 53.8245 47.9383 53.8245Z" fill="#231F20"/>
<path d="M63.6525 42.3777C62.9916 42.3777 62.4449 41.8473 62.4286 41.1783C62.4286 41.0314 62.2899 37.4496 59.5893 36.8785C56.7989 36.2911 55.159 39.057 55.0855 39.1793C54.7429 39.7586 53.9923 39.9626 53.413 39.6199C52.8337 39.2854 52.6297 38.5429 52.9642 37.9555C53.0703 37.776 55.5588 33.5252 60.087 34.4879C64.6968 35.4588 64.86 40.9009 64.8682 41.1293C64.8845 41.8065 64.346 42.3613 63.6688 42.3777C63.6688 42.3777 63.6606 42.3777 63.6525 42.3777Z" fill="#231F20"/>
<path d="M44.3726 38.3718C43.7118 38.3718 43.1651 37.8415 43.1488 37.1724C43.1488 37.0256 43.0101 33.4438 40.3095 32.8726C37.5273 32.2934 35.8791 35.0511 35.8057 35.1735C35.463 35.7528 34.7206 35.9567 34.1331 35.6141C33.5457 35.2714 33.3499 34.5289 33.6844 33.9496C33.7905 33.7701 36.2789 29.5193 40.8072 30.4821C45.417 31.453 45.5802 36.895 45.5884 37.1235C45.6047 37.8007 45.0662 38.3555 44.389 38.3718C44.389 38.3718 44.3808 38.3718 44.3726 38.3718Z" fill="#231F20"/>
<path d="M91.0342 32.8724C90.8792 32.8724 90.7242 32.8316 90.5855 32.7337L82.0267 27.0795C81.6514 26.8348 81.5453 26.3289 81.7983 25.9536C82.043 25.5783 82.557 25.4722 82.9242 25.7251L91.483 31.3793C91.8583 31.6241 91.9643 32.1299 91.7114 32.5052C91.5645 32.7419 91.3034 32.8724 91.0342 32.8724Z" fill="#231F20"/>
<path d="M89.4839 39.6689C89.3207 39.6689 89.1575 39.6199 89.0107 39.522L80.4111 33.4191C80.044 33.158 79.9542 32.6522 80.2153 32.285C80.4764 31.9179 80.9822 31.8281 81.3494 32.0892L89.949 38.1921C90.3161 38.4532 90.4059 38.9591 90.1448 39.3262C89.9897 39.5465 89.7368 39.6689 89.4839 39.6689Z" fill="#231F20"/>
<path d="M87.8439 46.5062C87.6644 46.5062 87.4849 46.4491 87.3299 46.3267L79.1138 39.6363C78.7629 39.3507 78.714 38.8367 78.9995 38.4859C79.2851 38.1351 79.7991 38.0861 80.15 38.3717L88.3661 45.062C88.7169 45.3476 88.7658 45.8616 88.4803 46.2125C88.3171 46.4083 88.0805 46.5062 87.8439 46.5062Z" fill="#231F20"/>
<path d="M86.4975 52.1602C86.3262 52.1602 86.1549 52.1031 86.008 51.9971L77.8817 45.837C77.5227 45.5678 77.4492 45.0538 77.7266 44.6948C77.9959 44.3358 78.5099 44.2623 78.8689 44.5398L86.9953 50.6998C87.3543 50.969 87.4277 51.483 87.1503 51.842C86.9871 52.046 86.7423 52.1602 86.4975 52.1602Z" fill="#231F20"/>
<path d="M84.8578 59.071C84.662 59.071 84.4661 58.9975 84.3111 58.8588L76.5846 51.8584C76.2501 51.5565 76.2256 51.0425 76.5275 50.708C76.8294 50.3735 77.3434 50.349 77.6779 50.6509L85.4045 57.6513C85.739 57.9532 85.7635 58.4672 85.4616 58.8017C85.2984 58.9812 85.0781 59.071 84.8578 59.071Z" fill="#231F20"/>
<path d="M82.8424 66.3977C82.6547 66.3977 82.467 66.3324 82.312 66.2019L74.9526 59.9113C74.61 59.6176 74.5692 59.1036 74.8629 58.7609C75.1566 58.4182 75.6706 58.3774 76.0133 58.6711L83.3727 64.9617C83.7154 65.2554 83.7562 65.7695 83.4625 66.1121C83.2993 66.2998 83.0708 66.3977 82.8424 66.3977Z" fill="#231F20"/>
<path d="M81.537 73.276C81.3493 73.276 81.1617 73.2107 81.0067 73.0802L73.5493 66.6835C73.2067 66.3898 73.1659 65.8758 73.4596 65.5331C73.7533 65.1904 74.2673 65.1496 74.61 65.4434L82.0673 71.84C82.41 72.1337 82.4508 72.6477 82.157 72.9904C81.9939 73.1862 81.7655 73.276 81.537 73.276Z" fill="#231F20"/>
<path d="M80.1663 79.2565C79.9786 79.2565 79.791 79.1912 79.6359 79.0607L72.2847 72.7701C71.942 72.4764 71.9012 71.9624 72.1949 71.6197C72.4887 71.277 73.0027 71.2362 73.3453 71.53L80.6966 77.8205C81.0393 78.1143 81.08 78.6283 80.7863 78.971C80.6231 79.1586 80.3947 79.2565 80.1663 79.2565Z" fill="#231F20"/>
<path d="M78.5834 86.575C78.355 86.575 78.1184 86.4771 77.9633 86.2895L70.9874 78.0652C70.6937 77.7225 70.7345 77.2085 71.0853 76.9148C71.428 76.6211 71.942 76.67 72.2357 77.0127L79.2116 85.237C79.5054 85.5796 79.4646 86.0936 79.1137 86.3874C78.9587 86.5097 78.7711 86.575 78.5834 86.575Z" fill="#231F20"/>
<path d="M74.3817 92.5636C74.0798 92.5636 73.7942 92.3922 73.6473 92.1067L68.5806 81.81C68.3848 81.4021 68.548 80.9207 68.9559 80.7167C69.3557 80.5209 69.8453 80.6841 70.0492 81.0921L75.116 91.3887C75.3118 91.7966 75.1486 92.278 74.7407 92.482C74.6264 92.5309 74.5041 92.5636 74.3817 92.5636Z" fill="#231F20"/>
<path d="M66.4019 92.6695C66.0184 92.6695 65.6758 92.4003 65.6023 92.0086L63.6442 81.9813C63.5545 81.5407 63.8482 81.1082 64.2887 81.0267C64.7293 80.9369 65.1617 81.2306 65.2433 81.6712L67.2015 91.6986C67.2913 92.1392 66.9975 92.5716 66.5569 92.6532C66.508 92.6695 66.459 92.6695 66.4019 92.6695Z" fill="#231F20"/>
<path d="M59.8831 90.4584C59.4751 90.4584 59.1243 90.1484 59.0754 89.7323L58.0391 80.6187C57.9902 80.1699 58.3084 79.7701 58.7571 79.713C59.2222 79.6559 59.6057 79.9823 59.6628 80.431L60.699 89.5446C60.7479 89.9933 60.4297 90.3931 59.981 90.4503C59.9402 90.4584 59.9076 90.4584 59.8831 90.4584Z" fill="#231F20"/>
<path d="M54.2779 89.6347C53.9597 89.6347 53.666 89.4552 53.5273 89.1452L49.203 79.1749C49.0235 78.7588 49.2111 78.2774 49.6272 78.0979C50.0434 77.9184 50.5247 78.1061 50.7042 78.5222L55.0285 88.4924C55.208 88.9086 55.0204 89.3899 54.6043 89.5694C54.4982 89.6184 54.3839 89.6347 54.2779 89.6347Z" fill="#231F20"/>
<path d="M50.6062 91.0868C50.3859 91.0868 50.1574 90.997 49.9943 90.8175L43.1815 83.2052C42.8797 82.8707 42.9123 82.3567 43.2468 82.0548C43.5813 81.7529 44.0953 81.7855 44.3972 82.12L51.2099 89.7324C51.5118 90.0669 51.4792 90.5809 51.1447 90.8828C50.9897 91.0133 50.802 91.0868 50.6062 91.0868Z" fill="#231F20"/>
<path d="M47.1957 94.1629C46.9835 94.1629 46.7714 94.0813 46.6083 93.9181L39.9015 87.0319C39.5915 86.7056 39.5915 86.1916 39.9179 85.8815C40.2442 85.5715 40.7582 85.5715 41.0683 85.8979L47.775 92.784C48.085 93.1104 48.085 93.6244 47.7586 93.9344C47.6118 94.0895 47.4078 94.1629 47.1957 94.1629Z" fill="#231F20"/>
<path d="M31.5141 83.8092C31.1143 83.8092 30.7716 83.5154 30.7064 83.1156L29.2867 73.7083C29.2214 73.2596 29.5233 72.8435 29.9721 72.7782C30.429 72.7129 30.8369 73.023 30.9022 73.4636L32.3219 82.8709C32.3871 83.3196 32.0852 83.7357 31.6365 83.801C31.5957 83.8092 31.5549 83.8092 31.5141 83.8092Z" fill="#231F20"/>
<path d="M27.606 82.0302C27.2307 82.0302 26.8881 81.7691 26.8065 81.3856L25.036 73.1859C24.9381 72.7453 25.2236 72.3128 25.6642 72.2149C26.1048 72.117 26.5372 72.4026 26.6351 72.8432L28.4056 81.0429C28.5035 81.4835 28.218 81.916 27.7774 82.0139C27.7203 82.022 27.6631 82.0302 27.606 82.0302Z" fill="#231F20"/>
<path d="M23.3308 80.9045C22.9881 80.9045 22.6699 80.6843 22.5557 80.3416L20.108 72.7782C19.9693 72.3458 20.2059 71.8889 20.6301 71.7502C21.0626 71.6115 21.5195 71.8481 21.6582 72.2723L24.1059 79.8357C24.2446 80.2681 24.008 80.7251 23.5837 80.8638C23.4939 80.8964 23.4124 80.9045 23.3308 80.9045Z" fill="#231F20"/>
</svg>
